<svg width="52" height="52" viewBox="0 0 52 52" fill="none" xmlns="http://www.w3.org/2000/svg">
    <rect width="52" height="52" rx="26" fill="#FBFDFF" />
    <path
        d="M31.1094 26.6445C31.0703 26.7461 30.9023 27.3242 30.6055 28.3789C29.7617 28.6289 28.9961 28.8242 28.3086 28.9648C27.6211 29.0977 26.875 29.1641 26.0703 29.1641C25.1016 29.1641 24.1328 28.9922 23.1641 28.6484C22.1953 28.3047 21.3242 27.7969 20.5508 27.125C19.7773 26.4453 19.1641 25.6211 18.7109 24.6523C18.2578 23.6758 18.0312 22.5664 18.0312 21.3242C18.0312 19.6211 18.4492 18.1836 19.2852 17.0117C20.1289 15.8398 21.1992 14.9766 22.4961 14.4219C23.8008 13.8672 25.1445 13.5898 26.5273 13.5898C27.6133 13.5898 28.6602 13.7812 29.668 14.1641C30.1367 14.3125 30.4883 14.3867 30.7227 14.3867C30.832 14.3633 30.9102 14.3477 30.957 14.3398C31.0117 14.332 31.0781 14.3242 31.1562 14.3164C31.2031 14.3164 31.2539 14.3477 31.3086 14.4102L31.1328 15.0781C30.9688 15.6641 30.8242 16.4102 30.6992 17.3164C30.5586 17.293 30.4648 17.2461 30.418 17.1758C30.3711 17.0977 30.3477 16.9766 30.3477 16.8125C30.332 16.3203 30.2656 15.9844 30.1484 15.8047C29.9375 15.4609 29.4102 15.1094 28.5664 14.75C27.7227 14.3906 26.875 14.2109 26.0234 14.2109C24.8984 14.2109 23.8789 14.4922 22.9648 15.0547C22.0586 15.6094 21.3398 16.4258 20.8086 17.5039C20.2852 18.582 20.0234 19.8477 20.0234 21.3008C20.0234 22.6367 20.2539 23.7891 20.7148 24.7578C21.1836 25.7188 21.7656 26.4805 22.4609 27.043C23.1641 27.6055 23.875 28.0117 24.5938 28.2617C25.3203 28.5117 25.9492 28.6367 26.4805 28.6367C27.3242 28.6367 28.0234 28.5 28.5781 28.2266C29.1328 27.9453 29.5664 27.6133 29.8789 27.2305C30.1992 26.8398 30.5078 26.375 30.8047 25.8359C30.9219 25.6094 31.0234 25.4961 31.1094 25.4961C31.2578 25.4961 31.332 25.5664 31.332 25.707C31.332 25.8086 31.2578 26.1211 31.1094 26.6445Z"
        fill="#001427" />
    <path
        d="M20.8906 33.6445C20.9297 33.7461 21.0977 34.3242 21.3945 35.3789C22.2383 35.6289 23.0039 35.8242 23.6914 35.9648C24.3789 36.0977 25.125 36.1641 25.9297 36.1641C26.8984 36.1641 27.8672 35.9922 28.8359 35.6484C29.8047 35.3047 30.6758 34.7969 31.4492 34.125C32.2227 33.4453 32.8359 32.6211 33.2891 31.6523C33.7422 30.6758 33.9688 29.5664 33.9688 28.3242C33.9688 26.6211 33.5508 25.1836 32.7148 24.0117C31.8711 22.8398 30.8008 21.9766 29.5039 21.4219C28.1992 20.8672 26.8555 20.5898 25.4727 20.5898C24.3867 20.5898 23.3398 20.7812 22.332 21.1641C21.8633 21.3125 21.5117 21.3867 21.2773 21.3867C21.168 21.3633 21.0898 21.3477 21.043 21.3398C20.9883 21.332 20.9219 21.3242 20.8438 21.3164C20.7969 21.3164 20.7461 21.3477 20.6914 21.4102L20.8672 22.0781C21.0312 22.6641 21.1758 23.4102 21.3008 24.3164C21.4414 24.293 21.5352 24.2461 21.582 24.1758C21.6289 24.0977 21.6523 23.9766 21.6523 23.8125C21.668 23.3203 21.7344 22.9844 21.8516 22.8047C22.0625 22.4609 22.5898 22.1094 23.4336 21.75C24.2773 21.3906 25.125 21.2109 25.9766 21.2109C27.1016 21.2109 28.1211 21.4922 29.0352 22.0547C29.9414 22.6094 30.6602 23.4258 31.1914 24.5039C31.7148 25.582 31.9766 26.8477 31.9766 28.3008C31.9766 29.6367 31.7461 30.7891 31.2852 31.7578C30.8164 32.7188 30.2344 33.4805 29.5391 34.043C28.8359 34.6055 28.125 35.0117 27.4062 35.2617C26.6797 35.5117 26.0508 35.6367 25.5195 35.6367C24.6758 35.6367 23.9766 35.5 23.4219 35.2266C22.8672 34.9453 22.4336 34.6133 22.1211 34.2305C21.8008 33.8398 21.4922 33.375 21.1953 32.8359C21.0781 32.6094 20.9766 32.4961 20.8906 32.4961C20.7422 32.4961 20.668 32.5664 20.668 32.707C20.668 32.8086 20.7422 33.1211 20.8906 33.6445Z"
        fill="#001427" />
</svg>